<?xml version="1.0" standalone="no"?>
<!DOCTYPE svg PUBLIC "-//W3C//DTD SVG 20010904//EN"
 "http://www.w3.org/TR/2001/REC-SVG-20010904/DTD/svg10.dtd">
<svg version="1.0" xmlns="http://www.w3.org/2000/svg"
 width="84.000000pt" height="84.000000pt" viewBox="0 0 84.000000 84.000000"
 preserveAspectRatio="xMidYMid meet">
<metadata>
Created by potrace 1.11, written by Peter Selinger 2001-2013
</metadata>
<g transform="translate(0.000000,84.000000) scale(0.100000,-0.100000)"
fill="#000000" stroke="none">
<path d="M376 788 c-82 -15 -154 -77 -181 -157 -33 -97 -14 -158 123 -405 98
-174 101 -178 115 -155 65 104 199 357 212 403 53 182 -88 345 -269 314z m148
-92 c20 -15 44 -41 53 -59 20 -39 22 -120 3 -167 -17 -44 -153 -290 -160 -290
-7 0 -135 227 -154 273 -47 115 -19 209 79 262 46 25 134 16 179 -19z"/>
<path d="M310 658 c0 -7 19 -31 42 -55 41 -42 41 -43 23 -63 -10 -11 -29 -20
-41 -20 -17 0 -25 -7 -30 -25 -3 -14 -13 -25 -21 -25 -27 0 -3 -18 33 -24 42
-8 66 7 62 39 -3 27 18 55 42 55 24 0 45 -28 42 -55 -4 -32 20 -47 62 -39 36
6 60 24 33 24 -8 0 -18 11 -21 25 -5 21 -21 30 -47 27 -4 -1 -15 8 -25 19 -17
19 -16 21 21 59 38 39 53 70 34 70 -6 0 -30 -20 -55 -45 l-46 -44 -44 44 c-44
45 -64 55 -64 33z m210 -179 c0 -12 -7 -19 -20 -19 -19 0 -28 28 -14 43 11 11
34 -5 34 -24z m-160 1 c0 -23 -35 -28 -43 -6 -7 18 1 26 25 26 11 0 18 -7 18
-20z"/>
</g>
</svg>
